# xmcd
#
# Track frame offsets:
#	150
#	19340
#	40916
#	64440
#	86669
#	102023
#	128364
#	148412
#	172653
#	187153
#	212142
#	242920
#
# Disc length: 3595 seconds
#
# Revision: 6
# Processed by: cddbd v1.4PL0 Copyright (c) Steve Scherf et al.
# Submitted via: CDmax 1.8
#
DISCID=ac0e090c
DTITLE=Robert Cray - Take Your Shoes Off
DYEAR=1999
DGENRE=Blues
TTITLE0=Love Gone To Waste
TTITLE1=That Wasn't Me
TTITLE2=All The Way
TTITLE3=There's Nothing Wrong
TTITLE4=24-7 Man
TTITLE5=Pardon
TTITLE6=Let Me Know
TTITLE7=It's All Gone
TTITLE8=Won't You Give Him (One More Chance)
TTITLE9=Living Proof
TTITLE10=What About Me
TTITLE11=Tollin' Bells
EXTD=YEAR: 1999 ID3G:   0
EXTT0=
EXTT1=
EXTT2=
EXTT3=
EXTT4=
EXTT5=
EXTT6=
EXTT7=
EXTT8=
EXTT9=
EXTT10=
EXTT11=
PLAYORDER=
